<?xml version="1.0" encoding="UTF-8"?>
<svg width="1920px" height="1080px" viewBox="0 0 1920 1080" version="1.1" xmlns="http://www.w3.org/2000/svg" xmlns:xlink="http://www.w3.org/1999/xlink">
    <title>编组 3</title>
    <defs>
        <linearGradient x1="32.184859%" y1="8.30448458%" x2="66.4624166%" y2="81.9847055%" id="linearGradient-1">
            <stop stop-color="#15539E" offset="0%"></stop>
            <stop stop-color="#092965" offset="100%"></stop>
        </linearGradient>
        <path d="M12.8073815,5.70097804 C15.3138438,4.10989423 23.1353098,3.08114314 30.5412466,1.7264627 C33.0015069,1.27643639 35.4293678,0.413675544 37.6140593,0.126437034 C41.059225,-0.326525904 44.8712745,1.00610995 47.5407262,2.86840456 C50.210178,4.73069917 47.6280143,6.50914748 48.8709987,14.2881505 C50.1139832,22.0671535 52.8802209,30.9848365 51.210549,35.7373235 C50.0974344,38.9056482 48.3078556,41.1407249 45.8418126,42.4425535 C45.9420251,51.1577818 44.9398896,56.9133617 42.8354063,59.7092933 C39.6786813,63.9031905 21.4711952,71.5004384 12.8073815,66.7036316 C4.14356789,61.9068248 13.6242672,53.3202172 9.87177237,41.0073348 C6.11927758,28.6944523 -0.986097199,21.9377485 0.114461969,16.1480528 C1.21502114,10.358357 8.85057552,8.21272938 12.8073815,5.70097804 Z" id="path-2"></path>
        <linearGradient x1="17.8082885%" y1="33.9786188%" x2="79.7473575%" y2="62.2900306%" id="linearGradient-4">
            <stop stop-color="#15539E" offset="0%"></stop>
            <stop stop-color="#092965" offset="100%"></stop>
        </linearGradient>
        <path d="M16.45444,17.0004045 C16.45444,19.6473369 16.6606311,21.2926481 17.0730134,21.9363382 C18.7781112,21.2926481 20.4255305,22.3874052 22.0152713,25.2206094 C24.3998826,29.4704158 25.1285202,34.1193881 23.8160315,38.3984961 C22.5035429,42.6776041 15.6938124,44.3998308 9.52972045,40.8708611 C1.12579105,36.0116532 1.04658962,25.7222619 1.90350906,24.8099702 C2.76042851,23.8976786 6.24300405,24.0459765 1.04658962,6.69050868 C-2.41768667,-4.87980322 2.71826345,-1.44317127 16.45444,17.0004045 Z" id="path-5"></path>
        <linearGradient x1="78.2806167%" y1="44.8032244%" x2="10.334076%" y2="59.1261598%" id="linearGradient-7">
            <stop stop-color="#4F6FCE" offset="0%"></stop>
            <stop stop-color="#3B3B5D" offset="100%"></stop>
        </linearGradient>
        <path d="M15.1844016,2.19085269 L408.222432,232.664252 C416.413711,237.467533 423.054055,248.613126 423.054055,257.558632 L423.054055,571.380751 C423.054055,580.326256 416.413711,583.684193 408.222432,578.880912 L15.1844016,348.407513 C6.99312201,343.604232 0.352777862,332.458639 0.352777862,323.513133 L0.352777862,9.69101395 C0.352777862,0.745508376 6.99312201,-2.6124282 15.1844016,2.19085269 Z" id="path-8"></path>
        <linearGradient x1="93.3798596%" y1="29.3745906%" x2="0%" y2="56.2976918%" id="linearGradient-10">
            <stop stop-color="#C0E1FF" offset="0%"></stop>
            <stop stop-color="#FFFFFF" offset="100%"></stop>
        </linearGradient>
        <linearGradient x1="34.0883703%" y1="26.2554686%" x2="60.3812053%" y2="81.9847055%" id="linearGradient-11">
            <stop stop-color="#56A1FF" offset="0%"></stop>
            <stop stop-color="#5187DC" offset="100%"></stop>
        </linearGradient>
        <linearGradient x1="34.0881597%" y1="26.2554686%" x2="60.3813427%" y2="81.9847055%" id="linearGradient-12">
            <stop stop-color="#56A1FF" offset="0%"></stop>
            <stop stop-color="#5187DC" offset="100%"></stop>
        </linearGradient>
        <linearGradient x1="67.45243%" y1="44.8032244%" x2="25.5215111%" y2="59.1261598%" id="linearGradient-13">
            <stop stop-color="#4F6FCE" offset="0%"></stop>
            <stop stop-color="#3B3B5D" offset="100%"></stop>
        </linearGradient>
        <linearGradient x1="103.360279%" y1="40.0119164%" x2="40.4405437%" y2="57.3545918%" id="linearGradient-14">
            <stop stop-color="#364D83" stop-opacity="0.602491259" offset="0%"></stop>
            <stop stop-color="#B2C4FF" offset="100%"></stop>
        </linearGradient>
        <filter x="0.0%" y="0.0%" width="100.0%" height="100.0%" filterUnits="objectBoundingBox" id="filter-15">
            <feGaussianBlur stdDeviation="0" in="SourceGraphic"></feGaussianBlur>
        </filter>
        <linearGradient x1="103.441827%" y1="48.8174372%" x2="-24.9566209%" y2="52.0767217%" id="linearGradient-16">
            <stop stop-color="#4F6FCE" offset="0%"></stop>
            <stop stop-color="#3B3B5D" offset="100%"></stop>
        </linearGradient>
        <linearGradient x1="81.3830792%" y1="44.8032244%" x2="5.98261352%" y2="59.1261598%" id="linearGradient-17">
            <stop stop-color="#4F6FCE" offset="0%"></stop>
            <stop stop-color="#3B3B5D" offset="100%"></stop>
        </linearGradient>
        <ellipse id="path-18" cx="81.6231884" cy="98.2439024" rx="66.7810748" ry="87.1239551"></ellipse>
        <linearGradient x1="88.6431035%" y1="23.0353155%" x2="5.45962589%" y2="58.2333044%" id="linearGradient-20">
            <stop stop-color="#C0E1FF" offset="0%"></stop>
            <stop stop-color="#FFFFFF" offset="100%"></stop>
        </linearGradient>
        <ellipse id="path-21" cx="104.347826" cy="109.290378" rx="92.2888103" ry="97.7815955"></ellipse>
        <linearGradient x1="64.9706692%" y1="23.0353155%" x2="32.7446777%" y2="58.2333044%" id="linearGradient-23">
            <stop stop-color="#C0E1FF" offset="0%"></stop>
            <stop stop-color="#FFFFFF" offset="100%"></stop>
        </linearGradient>
        <linearGradient x1="33.9311028%" y1="26.2554686%" x2="60.4838112%" y2="81.9847055%" id="linearGradient-24">
            <stop stop-color="#56A1FF" offset="0%"></stop>
            <stop stop-color="#5187DC" offset="100%"></stop>
        </linearGradient>
        <ellipse id="path-25" cx="32.0263055" cy="39.0646973" rx="20.3473133" ry="33.7583584"></ellipse>
        <linearGradient x1="46.2540664%" y1="8.30448458%" x2="53.4615005%" y2="81.9847055%" id="linearGradient-27">
            <stop stop-color="#15539E" offset="0%"></stop>
            <stop stop-color="#092965" offset="100%"></stop>
        </linearGradient>
        <path d="M42.5890927,19.9321296 C45.1497222,18.1830615 46.9201997,17.0808415 47.9005251,16.6254694 C50.3181439,15.5024584 62.3479551,0.305887969 63.1520978,0.680459644 C66.1410358,2.07271432 74.5619639,5.73711843 76.4734915,15.2295682 C66.7819515,27.4172939 59.1176772,37.0467127 53.4806687,44.1178244 C49.7853286,49.1199242 52.7062396,67.6392685 53.4806687,72.6380192 C53.9969548,75.9705196 52.867176,78.7955096 50.0913324,81.1129891 C40.1795417,85.1364662 28.0495029,84.8260348 13.7012159,80.1816949 C7.4349771,77.6650333 3.44372583,74.3338514 1.72746209,70.1881491 C0.575820696,67.7809569 0.575820696,62.115836 1.72746209,53.1927863 C-0.146601287,40.0079693 0.501045408,23.5509782 3.58944634,16.6254694 C6.67784727,9.69996056 12.6370667,7.43423639 18.7062993,10.047025 C19.6575204,10.4565232 20.2290961,9.58559365 20.4210265,7.43423639 L42.5890927,19.9321296 Z" id="path-28"></path>
        <path d="M22.5622548,30.1679758 C20.8191197,30.1679758 17.93124,30.521238 20.2467474,36.3033092 C22.5622548,42.0853805 16.0571838,45.4316591 14.0139714,44.6291395 C11.9707589,43.8266199 5.25429817,33.5951162 1.66845143,30.8839868 C-0.722113061,29.0765672 -0.543769126,25.5588525 2.20348324,20.3308428 C0.160122602,14.9635459 1.55508782,11.0909879 6.38837889,8.71316882 C13.6383155,5.14644015 25.3641143,-1.12188383 30.4107958,0.173462497 C33.77525,1.03702672 35.02714,2.2653052 34.1664656,3.85829794 C39.5735396,6.39076339 40.8712196,9.01741703 38.0595055,11.7382589 C35.2477915,14.4591007 31.317016,16.3153085 26.267179,17.3068821 C29.6389381,19.1769432 31.0201437,21.2702402 30.4107958,23.586773 C29.4967738,27.0615721 28.5500765,31.126688 30.4107958,33.9998219 C32.271515,36.8729558 39.3407639,36.6171598 40.0069283,33.9998219 C40.8812964,35.9917218 40.6497394,42.2572683 40.3283338,43.7186536 C40.0069283,45.1800388 41.2179048,47.397866 34.6614868,47.397866 C28.1050687,47.397866 30.5935112,40.983356 28.5816405,36.3033092 C26.5697697,31.6232625 24.3053899,30.1679758 22.5622548,30.1679758 Z" id="path-30"></path>
        <linearGradient x1="51.5488872%" y1="47.3901966%" x2="38.0257135%" y2="17.777349%" id="linearGradient-32">
            <stop stop-color="#30334F" offset="0%"></stop>
            <stop stop-color="#181E36" offset="100%"></stop>
        </linearGradient>
        <linearGradient x1="59.8495286%" y1="55.4991853%" x2="24.9595611%" y2="42.5998025%" id="linearGradient-33">
            <stop stop-color="#FFFFFF" offset="0%"></stop>
            <stop stop-color="#E6E6E6" offset="100%"></stop>
        </linearGradient>
        <linearGradient x1="50%" y1="119.77058%" x2="76.3304431%" y2="-36.9438217%" id="linearGradient-34">
            <stop stop-color="#BFD5FF" offset="0%"></stop>
            <stop stop-color="#8493F2" offset="100%"></stop>
        </linearGradient>
        <linearGradient x1="50%" y1="0%" x2="50%" y2="100%" id="linearGradient-35">
            <stop stop-color="#6F49E5" offset="0%"></stop>
            <stop stop-color="#A265E9" offset="100%"></stop>
        </linearGradient>
        <linearGradient x1="69.4266028%" y1="60.1988347%" x2="37.6060599%" y2="31.8955286%" id="linearGradient-36">
            <stop stop-color="#334A98" offset="0%"></stop>
            <stop stop-color="#2F76FF" offset="100%"></stop>
        </linearGradient>
        <linearGradient x1="66.6144635%" y1="30.8594278%" x2="29.4571685%" y2="87.5886689%" id="linearGradient-37">
            <stop stop-color="#334A98" offset="0%"></stop>
            <stop stop-color="#2F76FF" offset="100%"></stop>
        </linearGradient>
        <linearGradient x1="50%" y1="84.6588571%" x2="89.2654397%" y2="6.81025567%" id="linearGradient-38">
            <stop stop-color="#BFD5FF" offset="0%"></stop>
            <stop stop-color="#8493F2" offset="100%"></stop>
        </linearGradient>
        <linearGradient x1="79.0451637%" y1="-5.86951334%" x2="20.9548363%" y2="100%" id="linearGradient-39">
            <stop stop-color="#E1E9FE" offset="0%"></stop>
            <stop stop-color="#C5D5FD" offset="100%"></stop>
        </linearGradient>
        <linearGradient x1="50%" y1="119.77058%" x2="88.4502953%" y2="-36.9438217%" id="linearGradient-40">
            <stop stop-color="#BFD5FF" offset="0%"></stop>
            <stop stop-color="#8493F2" offset="100%"></stop>
        </linearGradient>
        <linearGradient x1="68.0754044%" y1="69.7727899%" x2="40.6078464%" y2="36.717254%" id="linearGradient-41">
            <stop stop-color="#E1E9FE" offset="0%"></stop>
            <stop stop-color="#C5D5FD" offset="100%"></stop>
        </linearGradient>
    </defs>
    <g id="页面-1" stroke="none" stroke-width="1" fill="none" fill-rule="evenodd">
        <g id="Apple-TV">
            <g id="编组" transform="translate(-191.000000, -119.000000)">
                <g id="编组-3">
                    <path d="M1726.43207,119 C1538.7786,200.431728 1408.1629,325.098394 1334.58497,493 C1261.00704,660.901606 1246.72658,665.283521 1291.74361,506.145744 C1116.71901,538.269764 1016.80464,629.943145 992.000486,781.165887 C967.196336,932.388629 826.224809,1020.88519 569.085905,1046.65557 C468.869071,1066.58749 386.140856,1124.97133 320.901261,1221.80712 C255.661666,1318.6429 917.008983,1318.6429 2304.94321,1221.80712 L2184.48507,58.2299528 L1726.43207,119 Z" id="路径" fill="#EEF1FC"></path>
                    <path d="M486.345044,1199 C552.406081,1111.3653 663.854823,1054.34451 820.691272,1027.93763 C977.52772,1001.53075 1078.00585,923.219475 1122.12565,793.003806 C1155.75083,677.953521 1196.38582,606.937129 1244.03063,579.95463 C1291.67543,552.972132 1366.86587,528.686053 1469.60195,507.096396 C1552.77274,312.781526 1691.78789,183.41606 1886.6474,119 C2081.50691,54.5839397 2190.20529,54.5839397 2212.74253,119 L2200.49182,1260.59626 L486.345044,1199 Z" id="路径-2" fill="#88AAF5"></path>
                    <path d="M662.259359,1199 C833.917652,1014.56398 1037.22384,966.230652 1272.17792,1054 C1507.132,1141.76935 1674.63295,1060.87972 1774.68076,811.331118 C1905.74136,905.830718 2017.84777,869.50386 2111,702.350544 C2204.15223,535.197228 2238.06641,591.043615 2212.74253,869.889704 L2163.529,1279.94958 L1184.9258,1369.59128 L662.259359,1199 Z" id="路径-4" fill="#4465D6"></path>
                    <path d="M1624.60904,1199 C1647.20425,1144.76335 1712.02843,1117.64502 1819.08157,1117.64502 C1979.66127,1117.64502 2076.75868,1055.92184 2111,984.84854 C2133.82755,937.466342 2151.33721,967.171768 2163.529,1073.96482 L2130.83705,1348.55906 L1624.60904,1199 Z" id="路径-3" fill="#B3C3FA"></path>
                    <g id="SEO-Optimization" transform="translate(1029.000000, 389.000000)">
                        <g id="graphic-1" transform="translate(704.000000, 319.000000) scale(-1, 1) translate(-704.000000, -319.000000) translate(505.000000, 73.000000)">
                            <g id="Group-75-Copy-4" transform="translate(289.919900, 0.000000)">
                                <polygon id="Path-232" fill="#477FCC" points="0 290.362132 54.9421236 321.302021 54.9421236 62.0963957 0 29.7588713"></polygon>
                                <polygon id="Path-233" fill="#528CE2" points="54.9421236 321.302021 107.450407 290.177834 107.450407 31.9385831 54.9421236 62.0963957"></polygon>
                                <polygon id="Path-234" fill="#80B1FF" points="54.9421236 62.0963957 0 29.7588713 51.4999818 0 107.450407 31.9385831"></polygon>
                            </g>
                            <g id="Group-75-Copy-2" transform="translate(196.324493, 107.412621)">
                                <polygon id="Path-232" fill="#477FCC" points="0 237.521716 54.9421236 268.461605 54.9421236 62.0963957 0 29.7588713"></polygon>
                                <polygon id="Path-233" fill="#528CE2" points="54.9421236 268.461605 107.450407 237.337418 107.450407 31.9385831 54.9421236 62.0963957"></polygon>
                                <polygon id="Path-234" fill="#80B1FF" points="54.9421236 62.0963957 0 29.7588713 51.4999818 0 107.450407 31.9385831"></polygon>
                            </g>
                            <g id="Group-75-Copy" transform="translate(98.784323, 245.988346)">
                                <polygon id="Path-232" fill="#477FCC" points="0 156.546744 54.9421236 187.486633 54.9421236 62.0963957 0 29.7588713"></polygon>
                                <polygon id="Path-233" fill="#528CE2" points="54.9421236 187.486633 107.450407 156.362446 107.450407 31.9385831 54.9421236 62.0963957"></polygon>
                                <polygon id="Path-234" fill="#80B1FF" points="54.9421236 62.0963957 0 29.7588713 51.4999818 -2.10781634e-13 107.450407 31.9385831"></polygon>
                            </g>
                            <g id="Group-75" transform="translate(0.410477, 270.197359)">
                                <polygon id="Path-232" fill="#477FCC" points="0 189.938485 54.9421236 220.878374 54.9421236 62.0963957 0 29.7588713"></polygon>
                                <polygon id="Path-233" fill="#528CE2" points="54.9421236 220.878374 107.450407 189.754187 107.450407 31.9385831 54.9421236 62.0963957"></polygon>
                                <polygon id="Path-234" fill="#80B1FF" points="54.9421236 62.0963957 0 29.7588713 51.4999818 -2.10781634e-13 107.450407 31.9385831"></polygon>
                            </g>
                        </g>
                        <g id="woman-sit-with-laptop" transform="translate(707.000000, 341.000000) scale(-1, 1) translate(-707.000000, -341.000000) translate(622.000000, 218.000000)">
                            <g id="Group" transform="translate(0.000000, 0.826407)">
                                <path d="M100.258777,217.975794 C98.8745171,220.473984 100.14517,224.81286 104.070735,230.992421 C109.959083,240.261763 115.432548,243.508758 121.542145,244.319284 C127.651742,245.12981 123.231898,234.7156 118.72781,230.083025 C115.725085,226.994642 113.054442,222.010839 110.715882,215.131617 L100.258777,217.975794 Z" id="Path-91" fill="#051B4D"></path>
                                <path d="M107.671563,194.37615 L111.64672,217.228221 C115.672754,225.325283 118.727927,230.53487 120.81224,232.85698 C123.93871,236.340145 116.29308,239.033397 111.64672,235.848939 C108.549148,233.725966 104.973193,228.683415 100.918857,220.721284 L94.4306746,197.701439 L107.671563,194.37615 Z" id="Path-72" fill="#FFBBB0"></path>
                                <path d="M131.85381,191.664096 C131.759429,194.995637 133.388148,197.874518 136.739968,200.300739 C141.767698,203.94007 145.95823,202.819309 150.496575,205.103105 C155.03492,207.386902 168.239571,205.737889 169.27462,200.936402 C170.309669,196.134915 154.082367,194.948346 153.014809,194.37615 C152.303104,193.994687 145.249438,193.090669 131.85381,191.664096 Z" id="Path-94" fill="#051B4D"></path>
                                <path d="M139.051852,168.836679 L142.202812,186.931689 C142.761196,190.138326 144.187175,193.130783 146.325992,195.584304 C149.419446,199.132928 151.9493,201.698679 153.915552,203.28156 C157.851695,206.45025 155.115787,209.701577 148.361415,207.93381 C144.61753,206.953953 140.286842,203.850748 135.369353,198.624194 C133.405812,196.537248 131.974498,194.007569 131.196782,191.249672 L130.875906,190.111798 L130.875906,190.111798 L125.813373,172.159301 L139.051852,168.836679 Z" id="Path-72-Copy" fill="#FFBBB0" transform="translate(140.772710, 188.634956) rotate(-28.000000) translate(-140.772710, -188.634956) "></path>
                                <path d="M43.8669457,16.6011823 C50.7412506,15.3279111 50.1883338,0.642970253 39.7051923,2.18206123 C31.4892397,2.18206123 25.5375587,-3.87434043 18.1481657,4.19273413 C10.7587727,12.2598087 12.9910019,29.6901367 12.097426,40.0561354 C11.20385,50.422134 13.6210333,50.2224456 20.1368842,52.7753203 C26.6527351,55.328195 53.5526592,55.2706439 47.785954,41.2236363 C42.0192488,27.1766288 44.8829665,22.822388 43.8669457,16.6011823 Z" id="Path-54" fill="#30334F"></path>
                                <path d="M47.3785214,101.3998 C72.1759226,110.83175 87.2279828,120.519046 92.5347021,130.461687 C97.8414214,140.404327 103.293702,162.100158 108.891543,195.549178 C104.301185,201.880013 98.3800233,203.675754 91.1280569,200.936402 L68.7766088,133.028452 L33.9216986,112.67739 L47.3785214,101.3998 Z" id="Path-65" fill="url(#linearGradient-1)"></path>
                                <path d="M47.3785214,101.3998 C72.1759226,110.83175 87.2279828,120.519046 92.5347021,130.461687 C97.8414214,140.404327 103.293702,162.100158 108.891543,195.549178 C104.301185,201.880013 98.3800233,203.675754 91.1280569,200.936402 L68.7766088,133.028452 L33.9216986,112.67739 L47.3785214,101.3998 Z" id="Path-65-Copy" fill="#A9AAC4" style="mix-blend-mode: multiply;"></path>
                                <g id="Path-52" transform="translate(4.587339, 43.285034)">
                                    <mask id="mask-3" fill="white">
                                        <use xlink:href="#path-2"></use>
                                    </mask>
                                    <use id="Mask" fill="#586DFF" xlink:href="#path-2"></use>
                                    <path d="M-2.63574263,15.6821581 C4.96512164,20.1976809 9.77597965,26.3398131 11.7968314,34.1085547 C14.828109,45.761667 20.5675964,46.1764307 27.2043201,44.9171396 C33.8410439,43.6578484 39.2536092,41.4598505 48.3046125,42.3832196 C57.3556158,43.3065886 51.6934594,46.5099886 45.1213992,45.7994152 C38.5493391,45.0888418 35.0146365,45.88771 28.6716613,48.4000589 C22.3286861,50.9124078 16.7525615,50.865629 13.1418748,47.0861075 C14.2309956,53.9965122 13.1789921,58.6316539 27.0479078,60.9257161 C40.9168235,63.2197783 9.1232237,83.4537956 0.574047763,62.3877718 C-5.12540286,48.343756 -6.19533299,32.7752181 -2.63574263,15.6821581 Z" fill="#A9AAC4" style="mix-blend-mode: multiply;" mask="url(#mask-3)"></path>
                                </g>
                                <path d="M9.21853561,109.230391 C7.24962545,122.137037 9.5952175,132.085518 16.2553118,139.075833 C22.915406,146.066148 45.8788583,150.096904 85.1456687,151.168101 L116.500349,183.642872 C121.49542,185.447109 127.304053,183.136574 133.926248,176.711267 C117.498933,153.405798 105.262008,138.569449 97.2154721,132.202221 C89.1689365,125.834993 68.071012,117.272614 33.9216986,106.515085 L9.21853561,109.230391 Z" id="Path-64" fill="url(#linearGradient-4)"></path>
                                <path d="M30.9553253,104.21075 C34.3601995,105.400492 35.3489906,108.647032 33.9216986,113.950371 C31.7807606,121.905378 29.7772748,121.859848 28.1881286,119.782565 C26.5989825,117.705283 25.2646108,110.75654 27.4312776,107.483645 C28.8757222,105.301715 30.0504047,104.21075 30.9553253,104.21075 Z" id="Path-77" fill="#0D3677" style="mix-blend-mode: multiply;"></path>
                                <g id="Group-8" transform="translate(17.419251, 10.995465)">
                                    <g id="Path-97" transform="translate(2.750408, 11.911753)">
                                        <mask id="mask-6" fill="white">
                                            <use xlink:href="#path-5"></use>
                                        </mask>
                                        <use id="Mask" fill="#FFBBB0" xlink:href="#path-5"></use>
                                        <path d="M4.00660206,9.07671644 C4.00660206,9.07671644 6.41840983,22.4887508 17.0730134,21.9363382 C27.7276169,21.3839257 19.528747,15.074738 18.3008802,14.017345 C17.0730134,12.959952 4.00660206,9.07671644 4.00660206,9.07671644 Z" fill="#A9AAC4" opacity="0.200000003" style="mix-blend-mode: multiply;" mask="url(#mask-6)"></path>
                                    </g>
                                    <path d="M24.6845707,0 C25.9301446,1.73840083 26.5529316,5.30501705 26.5529316,10.6998487 C26.5529316,18.7920961 27.384267,30.0282107 20.8668497,30.222552 C14.3494325,30.4168934 10.4705931,28.734665 7.00336564,24.3013354 C4.69188069,21.3457824 3.54201595,19.4716914 3.55377141,18.6790625 C1.51935359,18.2340171 0.362435568,17.2751566 0.08301735,15.8024809 C-0.336109977,13.5934673 0.815472873,11.5208092 3.90941926,11.5208092 C7.00336564,11.5208092 17.1134221,12.8327184 21.2262955,0.686422824 C21.9206008,0.973909709 22.5463609,1.05745724 23.103576,0.937065421 C23.6607911,0.816673601 24.1877894,0.50431846 24.6845707,0 Z" id="Path-38" fill="#FFBBB0"></path>
                                </g>
                                <g id="Group-35" transform="translate(24.753672, 80.633407)">
                                    <path d="M54.7886771,18.8091548 L2.96361913,48.735453 C2.01663999,49.2822846 1.69225633,50.4932575 2.23908794,51.4402366 C2.41227808,51.7401598 2.6611089,51.9894088 2.96074072,52.1631025 L33.3135533,69.7583292 C34.8427925,70.6448141 36.7286938,70.6485786 38.2614599,69.7682058 L90.2354812,39.9159582 C91.1837225,39.3713181 91.5109059,38.1610987 90.9662659,37.2128574 C90.792952,36.9111106 90.5431755,36.6603684 90.2420998,36.4858912 L59.7459342,18.8129878 C58.2132416,17.9247736 56.3227414,17.9233118 54.7886771,18.8091548 Z" id="Path-157-Copy" fill="#092965"></path>
                                    <path d="M54.7886771,16.9765774 L2.96361913,46.9028756 C2.01663999,47.4497072 1.69225633,48.6606801 2.23908794,49.6076592 C2.41227808,49.9075823 2.6611089,50.1568314 2.96074072,50.330525 L33.3135533,67.9257517 C34.8427925,68.8122367 36.7286938,68.8160012 38.2614599,67.9356284 L90.2354812,38.0833808 C91.1837225,37.5387407 91.5109059,36.3285213 90.9662659,35.38028 C90.792952,35.0785331 90.5431755,34.8277909 90.2420998,34.6533138 L59.7459342,16.9804103 C58.2132416,16.0921961 56.3227414,16.0907344 54.7886771,16.9765774 Z" id="Path-157" fill="#FFFFFF"></path>
                                    <path d="M34.6907855,68.6853997 L44.9110012,32.6028105 C45.4093037,30.8435478 46.5826936,29.3525114 48.175501,28.454583 L96.946099,0.960673046 C97.3035748,0.759149827 97.7483202,0.79905791 98.0642078,1.06100366 L98.5088454,1.42971364 C99.099764,1.91972536 99.3522053,2.70837715 99.1556666,3.45044783 L90.3125304,36.8394577 L90.3125304,36.8394577 L35.784657,69.3582263 L34.6907855,68.6853997 Z" id="Path-158-Copy" fill="#B8D1F8"></path>
                                    <path d="M35.784657,69.3582263 L45.8301294,33.5382458 C46.3267083,31.7675528 47.5067315,30.2668466 49.1103308,29.366617 L97.832688,2.01483055 C98.3094602,1.7471799 98.9129341,1.91670638 99.1805847,2.39347855 C99.3014834,2.60883814 99.3375203,2.86160982 99.2816213,3.10217489 L91.2293331,37.7557464 L91.2293331,37.7557464 L35.784657,69.3582263 Z" id="Path-158" fill="#DCE9FF"></path>
                                    <ellipse id="Oval" fill="#092965" transform="translate(70.855877, 36.288682) rotate(32.000000) translate(-70.855877, -36.288682) " cx="70.855877" cy="36.2886825" rx="1.83331482" ry="2.74929856"></ellipse>
                                </g>
                                <path d="M30.9553253,104.259554 C44.4279289,107.04333 52.336591,108.435217 54.6813117,108.435217 C57.9372756,108.435217 66.451371,109.226573 70.3830273,111.445075 L66.6666031,123.815604 C64.2987329,123.403016 61.8740055,121.834643 59.6235992,119.452286 C57.8622656,117.587678 56.2148365,116.595377 54.6813117,116.475383 L25.0491975,116.475383 C24.6465266,111.968826 24.9173359,108.738996 25.8616255,106.785892 C26.805915,104.832789 28.503815,103.990676 30.9553253,104.259554 Z" id="Path-62" fill="#FFBBB0"></path>
                                <g id="Group-36" transform="translate(67.110760, 73.561919) rotate(92.000000) translate(-67.110760, -73.561919) translate(38.610760, 45.561919)">
                                    <g id="Group-37" transform="translate(-0.000000, -0.000000)">
                                        <path d="M55.2052756,22.4423993 C53.8275635,27.4519483 52.3979003,29.4247208 50.916286,28.3607169 C49.4346717,27.2967129 49.2616236,24.9256626 50.3971418,21.2475661 L55.2052756,22.4423993 Z" id="Path-6" fill="#0D3677" style="mix-blend-mode: multiply;" transform="translate(52.431701, 24.943941) rotate(-112.000000) translate(-52.431701, -24.943941) "></path>
                                        <path d="M41.7497067,20.8183494 L51.1312719,0.249500004 L56.4316942,8.9738679 L53.3811499,26.2539835 C50.4726027,29.4738613 47.6377837,29.7814858 44.8766929,27.176857 C42.1156021,24.5722282 41.0732734,22.4527256 41.7497067,20.8183494 Z" id="Path-2" fill="#FFBBB0"></path>
                                        <path d="M12.7211432,8.84843241 C14.1716929,8.79377765 15.7051818,9.36503261 17.3216098,10.5621973 C19.134741,11.905045 24.5180123,23.5254183 33.4714238,45.4233173 L45.390238,45.6019449 C40.6964728,49.6020157 39.6462626,54.5128107 42.2396073,60.3343299 C35.2771719,60.6426211 30.7902729,60.1354044 28.7789103,58.8126798 C27.2688796,57.8196442 18.3348604,45.1457115 13.0533186,26.8188495 C11.8843335,22.7624904 11.7736083,16.7723514 12.7211432,8.84843241 Z" id="Path-60" fill="#586DFF" transform="translate(28.737543, 34.633296) rotate(-81.000000) translate(-28.737543, -34.633296) "></path>
                                    </g>
                                </g>
                                <path d="M7.9495423,54.316605 C2.64984743,58.5867631 0,63.8197186 0,70.0154715 C0,79.3091008 4.41577296,108.12641 6.33616043,110.601574 C7.61641874,112.251684 15.1325905,115.629349 28.8846756,120.734571 C26.0077755,115.436026 26.6979921,109.944354 30.9553253,104.259554 C27.9124789,103.196081 23.2545602,101.658907 16.9815691,99.6480321 C15.9068984,87.8812608 14.8479697,77.7313755 13.8047831,69.1983762 C12.7615965,60.665377 10.8098495,55.7047865 7.9495423,54.316605 Z" id="Path-57" fill="#586DFF"></path>
                            </g>
                            <g id="graphic-3" transform="translate(85.274434, 60.296992) scale(-1, 1) translate(-85.274434, -60.296992) translate(53.774434, 14.796992)">
                                <path d="M0.164300418,4.22934218 L0.164300418,50.0871551 C0.164300418,52.6854671 1.54726292,55.0873782 3.79439074,56.3918482 L59.2504698,88.5844056 C60.4111318,89.2581762 61.8982332,88.8634728 62.5720038,87.7028108 C62.7871309,87.332225 62.9004391,86.9113428 62.9004391,86.4828412 L62.9004391,40.7609581 C62.9004391,38.1674134 61.5225048,35.7691596 59.2818881,34.4629777 L3.81811619,2.13001539 C2.65869002,1.45412045 1.17086829,1.84609996 0.494973357,3.00552613 C0.278407811,3.37702139 0.164300418,3.79933129 0.164300418,4.22934218 Z" id="Path-98" fill="#C7DCFF"></path>
                                <polygon id="Rectangle-Copy-16" fill="#528BE1" points="5.41606953 12.6352762 11.7348173 16.2156614 11.7348173 48.7063717 5.41606953 45.1259865"></polygon>
                                <polygon id="Rectangle-Copy-15" fill="#528BE1" points="16.6995477 19.4041742 23.0182955 22.9845594 23.0182955 55.0240098 16.6995477 51.4436246"></polygon>
                                <polygon id="Rectangle-Copy-14" fill="#528BE1" points="27.9830259 25.2705524 34.3017737 28.8509376 34.3017737 61.3416479 27.9830259 57.7612627"></polygon>
                                <polygon id="Rectangle-Copy-13" fill="#528BE1" points="39.2665041 31.5881905 45.5852519 35.1685757 45.5852519 67.659286 39.2665041 64.0789008"></polygon>
                                <polygon id="Rectangle-Copy-12" fill="#528BE1" points="50.5499823 37.4545688 56.8687301 41.034954 56.8687301 72.6231445 50.5499823 69.0427593"></polygon>
                                <polygon id="Rectangle" fill="#FFFFFF" points="5.41606953 32.4907102 11.7348173 36.0710955 11.7348173 54.1214901 5.41606953 50.5411048"></polygon>
                                <polygon id="Rectangle-Copy-8" fill="#FFFFFF" points="16.6995477 47.8335456 23.0182955 51.4139309 23.0182955 60.4391282 16.6995477 56.8587429"></polygon>
                                <polygon id="Rectangle-Copy-10" fill="#FFFFFF" points="27.9830259 45.1259865 34.3017737 48.7063717 34.3017737 66.7567663 27.9830259 63.176381"></polygon>
                                <polygon id="Rectangle-Copy-9" fill="#FFFFFF" points="39.2665041 46.0285062 45.5852519 49.6088914 45.5852519 73.0744044 39.2665041 69.4940191"></polygon>
                                <polygon id="Rectangle-Copy-11" fill="#FFFFFF" points="50.5499823 42.8696871 56.8687301 46.4500724 56.8687301 78.0382629 50.5499823 74.4578776"></polygon>
                            </g>
                        </g>
                        <g id="mac" transform="translate(220.000000, 307.000000) scale(-1, 1) translate(-220.000000, -307.000000) ">
                            <g transform="translate(3.704641, 0.000000)">
                                <path d="M114.301722,465.789627 L100.680919,507.658555 C93.1092372,530.933115 102.80546,556.336143 123.959623,568.646176 L192.284924,608.406043 C201.685202,613.876254 213.295667,613.890952 222.709765,608.444561 L296.106434,565.98197 C302.316638,562.389146 304.438443,554.442222 300.845619,548.232019 C299.727309,546.299019 298.129577,544.686946 296.206647,543.55141 L229.335056,504.062138 C208.544716,491.784944 198.950015,466.804785 206.176017,443.766715 L215.945204,412.620416 L215.945204,412.620416 L114.301722,465.789627 Z" id="Path-52" fill="#80B1FF" transform="translate(200.448306, 512.734478) scale(-1, 1) translate(-200.448306, -512.734478) "></path>
                                <g id="Path-53" transform="translate(83.277806, 412.620416)">
                                    <path d="M26.995213,52.6691872 L13.4936888,93.1758292 C5.65073974,116.705878 15.5305705,142.49861 37.0862392,154.767604 L102.083325,191.76246 C111.34713,197.035206 122.699606,197.054624 131.981395,191.8136 L206.685181,149.631611 C212.932628,146.103948 215.13745,138.179655 211.609787,131.932207 C210.468682,129.911324 208.807035,128.23303 206.797627,127.071836 L144.019408,90.793645 C122.837505,78.5530761 113.062537,53.1954543 120.547497,29.9042564 L130.157658,-1.31605804e-14 L130.157658,-1.31605804e-14 L26.995213,52.6691872 Z" id="Mask" fill="#DCE9FF" transform="translate(113.243709, 100.131429) scale(-1, 1) translate(-113.243709, -100.131429) "></path>
                                    <path d="M96.3297608,0 L103.222761,3.519 L202.126761,60.574 L212.99373,93.1758292 C217.030556,105.286927 216.372192,117.997463 211.84319,129.154826 L103.950597,66.9130152 C108.998705,55.553538 109.965272,42.4300716 105.939922,29.9042564 L96.3297608,0 Z" id="Combined-Shape" fill="#BDCCE6"></path>
                                </g>
                                <g id="Group-3-Copy">
                                    <path d="M17.1884076,1.60713437 L9.19123418,5.52019701 C3.637394,8.23772271 0.29117585,14.0565217 0.735764512,20.2235653 L21.6366866,310.147512 C22.752301,325.622586 31.0169878,339.693478 43.9896712,348.204178 L400.507876,582.09715 C406.797225,586.223263 414.777404,586.789411 421.586277,583.592543 L427.761131,580.693356 C432.319918,578.552936 435.230808,573.970461 435.230808,568.934199 L435.230808,265.387775 C435.230808,247.607207 425.750512,231.175616 410.357358,222.276212 L29.4000667,2.02943215 C25.6538953,-0.136380654 21.075245,-0.294717357 17.1884076,1.60713437 Z" id="Path-2-Copy" fill="#80B1FF"></path>
                                    <path d="M0.0376359253,18.8054336 L0.538331523,320.622221 C0.567698644,338.324574 9.99263418,354.680586 25.2937834,363.582776 L403.842968,583.822245 C410.044382,587.43022 417.996462,585.327822 421.604437,579.126409 C422.758564,577.142688 423.366563,574.888621 423.366563,572.593592 L423.366563,272.210866 C423.366563,254.51685 413.977577,238.151648 398.702636,229.221118 L19.585107,7.56916591 C13.3913899,3.94799472 5.43485091,6.03345519 1.81367971,12.2271723 C0.646905985,14.2228433 0.0338009233,16.4937137 0.0376359253,18.8054336 Z" id="Path-2-Copy-4" fill="#FFFFFF"></path>
                                </g>
                            </g>
                            <g id="Rectangle" transform="translate(0.000000, 6.825322)">
                                <mask id="mask-9" fill="white">
                                    <use xlink:href="#path-8"></use>
                                </mask>
                                <use id="Mask" fill="url(#linearGradient-7)" xlink:href="#path-8"></use>
                                <polygon fill="url(#linearGradient-10)" mask="url(#mask-9)" points="-39.8248945 245.38453 474.422798 543.572578 474.422798 695.139498 -39.8248945 396.95145"></polygon>
                                <polygon id="Path-21" fill="#DAE8FF" mask="url(#mask-9)" points="83.5422539 66.3360658 13.9560608 24.9896638 13.9560608 257.838747 83.5422539 296.321457"></polygon>
                            </g>
                            <polygon id="Path-103" fill="#FFFFFF" transform="translate(205.006368, 256.668657) scale(-1, 1) translate(-205.006368, -256.668657) " points="13.9560608 255.60181 396.056675 31.8149857 396.056675 264.15347 13.9560608 481.522327"></polygon>
                            <path d="M13.9560608,31.8149857 L60.8070608,59.2539857 L60.807386,290.136306 L59.6300608,290.135986 L13.9560608,264.15347 L13.9560608,31.8149857 Z" id="Combined-Shape" fill="#91B2F0"></path>
                            <g id="Graphic" transform="translate(234.318565, 186.144796)">
                                <path d="M10.425223,8.61324253 L10.425223,101.732961 C10.425223,107.026926 13.2435377,111.920557 17.8225325,114.577411 L130.507918,179.960457 C132.872516,181.33246 135.901629,180.527802 137.273631,178.163204 C137.71152,177.408518 137.942148,176.551497 137.942148,175.678974 L137.942148,82.8353288 C137.942148,77.5510728 135.134076,72.6648894 130.568342,70.0045445 L17.8672875,4.33631441 C15.5052054,2.95998517 12.4746241,3.75909582 11.0982949,6.12117799 C10.6574778,6.87771652 10.425223,7.73764547 10.425223,8.61324253 Z" id="Path-98" fill="#80B1FF"></path>
                                <path d="M91.8607243,86.7446068 L122.555784,69.0855073 L122.505422,66.008595 L92.0197061,83.5472573 L91.8607243,86.7446068 Z M87.7239118,84.821559 L87.7239118,98.9434882 L77.3945432,104.899515 L77.3945432,90.759158 L87.7239118,84.821559 Z M119.154964,78.9000495 L118.958653,81.9701149 L91.8607243,97.5652266 L91.9640242,94.5486898 L119.154964,78.9000495 Z" id="Path-152" fill="#FFFFFF" fill-rule="nonzero" transform="translate(99.975164, 85.454055) scale(-1, 1) translate(-99.975164, -85.454055) "></path>
                                <path d="M91.8607243,113.331402 L122.555784,95.6723025 L122.505422,92.5953902 L92.0197061,110.134053 L91.8607243,113.331402 Z M87.7239118,111.408354 L87.7239118,125.530283 L77.3945432,131.48631 L77.3945432,117.345953 L87.7239118,111.408354 Z M119.154964,105.486845 L118.958653,108.55691 L91.8607243,124.152022 L91.9640242,121.135485 L119.154964,105.486845 Z" id="Path-152-Copy-4" fill="#FFFFFF" fill-rule="nonzero" transform="translate(99.975164, 112.040850) scale(-1, 1) translate(-99.975164, -112.040850) "></path>
                                <path d="M91.8607243,138.084625 L122.555784,120.425526 L122.505422,117.348613 L92.0197061,134.887276 L91.8607243,138.084625 Z M87.7239118,136.161577 L87.7239118,150.283507 L77.3945432,156.239533 L77.3945432,142.099176 L87.7239118,136.161577 Z M119.154964,130.240068 L118.958653,133.310133 L91.8607243,148.905245 L91.9640242,145.888708 L119.154964,130.240068 Z" id="Path-152-Copy-5" fill="#FFFFFF" fill-rule="nonzero" transform="translate(99.975164, 136.794073) scale(-1, 1) translate(-99.975164, -136.794073) "></path>
                                <g id="Group-42" transform="translate(42.101205, 73.688000) rotate(6.000000) translate(-42.101205, -73.688000) translate(4.601205, 31.188000)">
                                    <path d="M42.6308966,76.3641817 C54.1364363,76.3445802 63.4898869,60.7725932 63.5224983,41.5831502 C63.5549397,22.3937072 54.2542247,6.85345979 42.748685,6.87303617 C40.8586068,6.87625209 37.5607736,6.52986226 32.8551856,5.83386668 C25.5395151,20.0733772 21.8734872,32.0134358 21.857102,41.6540425 C21.842454,50.3219275 24.2692515,61.3676261 29.1374944,74.7911382 C35.6597965,75.8440254 40.1575972,76.3683732 42.6308966,76.3641817 Z" id="Oval-Copy-17" fill="url(#linearGradient-11)" transform="translate(42.689800, 41.099024) rotate(-21.000000) translate(-42.689800, -41.099024) "></path>
                                    <g id="Path-236" transform="translate(0.226541, 4.413244)">
                                        <ellipse id="Mask" fill="#ADCCFF" transform="translate(31.489387, 40.284889) rotate(-20.000000) translate(-31.489387, -40.284889) " cx="31.4893865" cy="40.2848894" rx="20.3753555" ry="34.7289898"></ellipse>
                                        <path d="M25.4758072,39.6250072 L36.7392268,73.5875583 C44.9556104,74.4558321 50.521482,69.8399589 53.4368415,59.7399386 C55.4673426,52.2772176 54.5260706,43.3222581 50.6130253,32.8750603 L25.4758072,39.6250072 Z" id="Path-237" fill="#FFFFFF" fill-rule="nonzero"></path>
                                    </g>
                                </g>
                            </g>
                            <g id="Graphic" transform="translate(94.595666, 104.991234)">
                                <path d="M10.425223,8.61324253 L10.425223,101.732961 C10.425223,107.026926 13.2435377,111.920557 17.8225325,114.577411 L130.507918,179.960457 C132.872516,181.33246 135.901629,180.527802 137.273631,178.163204 C137.71152,177.408518 137.942148,176.551497 137.942148,175.678974 L137.942148,82.8353288 C137.942148,77.5510728 135.134076,72.6648894 130.568342,70.0045445 L17.8672875,4.33631441 C15.5052054,2.95998517 12.4746241,3.75909582 11.0982949,6.12117799 C10.6574778,6.87771652 10.425223,7.73764547 10.425223,8.61324253 Z" id="Path-98" fill="#80B1FF"></path>
                                <path d="M91.8607243,86.7446068 L122.555784,69.0855073 L122.505422,66.008595 L92.0197061,83.5472573 L91.8607243,86.7446068 Z M87.7239118,84.821559 L87.7239118,98.9434882 L77.3945432,104.899515 L77.3945432,90.759158 L87.7239118,84.821559 Z M119.154964,78.9000495 L118.958653,81.9701149 L91.8607243,97.5652266 L91.9640242,94.5486898 L119.154964,78.9000495 Z" id="Path-152" fill="#FFFFFF" fill-rule="nonzero" transform="translate(99.975164, 85.454055) scale(-1, 1) translate(-99.975164, -85.454055) "></path>
                                <path d="M91.8607243,113.331402 L122.555784,95.6723025 L122.505422,92.5953902 L92.0197061,110.134053 L91.8607243,113.331402 Z M87.7239118,111.408354 L87.7239118,125.530283 L77.3945432,131.48631 L77.3945432,117.345953 L87.7239118,111.408354 Z M119.154964,105.486845 L118.958653,108.55691 L91.8607243,124.152022 L91.9640242,121.135485 L119.154964,105.486845 Z" id="Path-152-Copy-4" fill="#FFFFFF" fill-rule="nonzero" transform="translate(99.975164, 112.040850) scale(-1, 1) translate(-99.975164, -112.040850) "></path>
                                <path d="M91.8607243,138.084625 L122.555784,120.425526 L122.505422,117.348613 L92.0197061,134.887276 L91.8607243,138.084625 Z M87.7239118,136.161577 L87.7239118,150.283507 L77.3945432,156.239533 L77.3945432,142.099176 L87.7239118,136.161577 Z M119.154964,130.240068 L118.958653,133.310133 L91.8607243,148.905245 L91.9640242,145.888708 L119.154964,130.240068 Z" id="Path-152-Copy-5" fill="#FFFFFF" fill-rule="nonzero" transform="translate(99.975164, 136.794073) scale(-1, 1) translate(-99.975164, -136.794073) "></path>
                                <g id="Group-42" transform="translate(42.101205, 73.688000) rotate(6.000000) translate(-42.101205, -73.688000) translate(4.601205, 31.188000)">
                                    <path d="M42.6309241,76.3642288 C54.136549,76.3446273 63.490069,60.772628 63.5226807,41.5831698 C63.5551222,22.3937116 54.2543384,6.85345186 42.7487134,6.87302826 C40.8586212,6.87624418 37.5607636,6.52985407 32.8551406,5.83385794 C25.5394159,20.0733797 21.8733609,32.0134478 21.8569756,41.6540622 C21.8423275,50.321954 24.2691429,61.3676613 29.1374219,74.791184 C35.6597723,75.8440721 40.1576063,76.3684203 42.6309241,76.3642288 Z" id="Oval-Copy-17" fill="url(#linearGradient-12)" transform="translate(42.689828, 41.099043) rotate(-21.000000) translate(-42.689828, -41.099043) "></path>
                                    <g id="Path-236" transform="translate(0.226541, 4.413244)">
                                        <ellipse id="Mask" fill="#ADCCFF" transform="translate(31.489387, 40.284889) rotate(-20.000000) translate(-31.489387, -40.284889) " cx="31.4893865" cy="40.2848894" rx="20.3753555" ry="34.7289898"></ellipse>
                                        <path d="M25.4758072,39.6250072 L36.7392268,73.5875583 C44.9556104,74.4558321 50.521482,69.8399589 53.4368415,59.7399386 C55.4673426,52.2772176 54.5260706,43.3222581 50.6130253,32.8750603 L25.4758072,39.6250072 Z" id="Path-237" fill="#FFFFFF" fill-rule="nonzero"></path>
                                    </g>
                                </g>
                            </g>
                            <path d="M367.713332,447.367394 L101.555415,296.922739 C98.3343334,295.102036 96.3818367,291.651551 96.4796719,287.952801 L97.7399206,240.307902 C97.7837305,238.651627 99.1619216,237.344465 100.818197,237.388275 C101.32495,237.401679 101.820043,237.543277 102.25725,237.799848 L367.250821,393.30879 C370.310262,395.104193 372.18956,398.386041 372.18956,401.933385 L372.18956,444.755737 C372.18956,446.412591 370.846415,447.755737 369.18956,447.755737 C368.672232,447.755737 368.163694,447.621959 367.713332,447.367394 Z" id="Path-22" stroke="#DDE7F9" stroke-width="1.79999995"></path>
                            <ellipse id="Oval" fill="url(#linearGradient-13)" transform="translate(198.198312, 425.539970) scale(-1, 1) rotate(18.000000) translate(-198.198312, -425.539970) " cx="198.198312" cy="425.53997" rx="5.55692374" ry="9.7240489"></ellipse>
                        </g>
                        <g id="web-development-copy" transform="translate(390.000000, 378.000000) scale(-1, 1) translate(-390.000000, -378.000000) translate(262.000000, 74.000000)">
                            <g id="man-with-lup" transform="translate(0.270605, 0.068359)">
                                <ellipse id="Oval-Copy-24" fill="url(#linearGradient-14)" opacity="0.211021208" filter="url(#filter-15)" cx="62.8018585" cy="570.395056" rx="62.1449275" ry="36.6097561"></ellipse>
                                <path d="M16.3385019,445.629486 L84.704874,241.036207 C85.0549465,239.98858 86.1880061,239.4231 87.2356334,239.773173 C87.2857172,239.789909 87.3351185,239.808621 87.3837212,239.829267 L121.261639,254.220188 C122.207279,254.621884 122.69473,255.674741 122.389225,256.655691 L55.4829182,471.486357 L55.4829182,471.486357 C49.8501345,483.156148 40.2318102,486.073595 26.6279455,480.2387 C13.0240807,474.403805 9.59426624,462.8674 16.3385019,445.629486 Z" id="Path-229" fill="#80B1FF"></path>
                                <ellipse id="Oval" fill="url(#linearGradient-16)" transform="translate(103.714898, 249.026872) rotate(24.000000) translate(-103.714898, -249.026872) " cx="103.714898" cy="249.026872" rx="20.4032241" ry="9.73293711"></ellipse>
                                <g id="Group" transform="translate(148.317064, 129.000000) scale(-1, 1) translate(-148.317064, -129.000000) translate(41.817064, 0.000000)">
                                    <g id="Oval" transform="translate(116.884771, 187.151153)">
                                        <path d="M10.173843,3.36548135 L36.1425419,3.37184334 L36.1555232,56.3287694 C36.1624024,62.4039002 31.238742,67.329975 25.16361,67.3314642 C25.1618129,67.3314646 25.1600158,67.3314646 25.15822,67.3260742 L21.1895204,67.3251019 C15.116495,67.3182215 10.1937056,62.3954329 10.1868243,56.3224074 L10.173843,3.36548135 L10.173843,3.36548135 Z" id="Mask" fill="#DCE9FF" transform="translate(23.166031, 35.347125) rotate(-20.000000) translate(-23.166031, -35.347125) "></path>
                                        <path d="M33.1206991,24.5010703 L28.6826402,36.8706923 C23.6472731,36.8260928 18.9502871,35.8344262 14.5916822,33.8956923 C10.2330773,31.9569584 7.18956622,28.8254177 5.46114899,24.5010703 L8.74388589,15.8244565 L33.1206991,24.5010703 Z" id="Path-23" fill="#A9AAC4" style="mix-blend-mode: multiply;" transform="translate(19.290924, 26.347574) scale(-1, 1) translate(-19.290924, -26.347574) "></path>
                                    </g>
                                    <ellipse id="Oval-Copy" fill="url(#linearGradient-17)" transform="translate(95.536232, 116.780488) rotate(10.000000) translate(-95.536232, -116.780488) " cx="95.5362319" cy="116.780488" rx="78.8387689" ry="102.880415"></ellipse>
                                    <ellipse id="Oval" fill="#80B1FF" transform="translate(116.869565, 115.853659) rotate(10.000000) translate(-116.869565, -115.853659) " cx="116.869565" cy="115.853659" rx="78.8387689" ry="102.880415"></ellipse>
                                    <g id="Oval-Copy-3" transform="translate(35.474069, 18.537366)">
                                        <mask id="mask-19" fill="white">
                                            <use xlink:href="#path-18"></use>
                                        </mask>
                                        <use id="Mask" fill="#3F699D" transform="translate(81.623188, 98.243902) rotate(10.000000) translate(-81.623188, -98.243902) " xlink:href="#path-18"></use>
                                        <g id="Rectangle" mask="url(#mask-19)">
                                            <g transform="translate(-59.255135, -13.975610)">
                                                <mask id="mask-22" fill="white">
                                                    <use xlink:href="#path-21"></use>
                                                </mask>
                                                <use id="Mask" stroke="none" fill="url(#linearGradient-20)" fill-rule="evenodd" transform="translate(104.347826, 109.290378) rotate(7.000000) translate(-104.347826, -109.290378) " xlink:href="#path-21"></use>
                                                <path d="M148.229858,28.1789809 C180.374784,38.6297606 199.61203,79.569618 191.805775,123.807352 C185.816865,157.746256 165.534864,184.421208 141.160661,194.475752 C109.014496,184.024441 89.7774213,143.084723 97.5836474,98.8471533 C103.52042,65.203709 123.502505,38.6982931 147.593119,28.4451197 Z" id="Combined-Shape" stroke="none" fill="url(#linearGradient-23)" fill-rule="evenodd" mask="url(#mask-22)"></path>
                                                <g id="Group-47-Copy" stroke="none" stroke-width="1" fill="none" fill-rule="evenodd" mask="url(#mask-22)">
                                                    <g transform="translate(67.600619, 98.772324) scale(-1, 1) translate(-67.600619, -98.772324) translate(0.100619, 9.272324)">
                                                        <path d="M10.1915236,8.35654202 L10.1915236,98.69961 C10.1915236,103.869781 12.9522163,108.646479 17.4320392,111.227536 L127.624441,174.715068 C129.930768,176.043862 132.877617,175.251415 134.206411,172.945088 C134.628018,172.213324 134.849936,171.383622 134.849936,170.539093 L134.849936,80.4640941 C134.849936,75.3033469 132.099214,70.5338638 127.632264,67.9493573 L17.4246335,4.1849631 C15.1207341,2.85196329 12.1724447,3.63903294 10.8394449,5.94293236 C10.4150108,6.67650591 10.1915236,7.50903129 10.1915236,8.35654202 Z" id="Path-98" fill="#80B1FF" fill-rule="evenodd"></path>
                                                        <path d="M89.8015074,84.204535 L119.808485,67.0625325 L119.759251,64.075719 L89.9569253,81.1008109 L89.8015074,84.204535 Z M85.7574287,82.3377982 L85.7574287,96.0462065 L75.6596108,101.827828 L75.6596108,88.1015314 L85.7574287,82.3377982 Z M116.4839,76.5896834 L116.291989,79.5698506 L89.8015074,94.7083034 L89.9024917,91.7800974 L116.4839,76.5896834 Z" id="Path-152" fill="#FFFFFF" fill-rule="nonzero" transform="translate(97.734048, 82.951773) scale(-1, 1) translate(-97.734048, -82.951773) "></path>
                                                        <path d="M89.8015074,110.012811 L119.808485,92.8708082 L119.759251,89.8839947 L89.9569253,106.909087 L89.8015074,110.012811 Z M85.7574287,108.146074 L85.7574287,121.854482 L75.6596108,127.636103 L75.6596108,113.909807 L85.7574287,108.146074 Z M116.4839,102.397959 L116.291989,105.378126 L89.8015074,120.516579 L89.9024917,117.588373 L116.4839,102.397959 Z" id="Path-152-Copy-4" fill="#FFFFFF" fill-rule="nonzero" transform="translate(97.734048, 108.760049) scale(-1, 1) translate(-97.734048, -108.760049) "></path>
                                                        <path d="M89.8015074,134.041205 L119.808485,116.899203 L119.759251,113.912389 L89.9569253,130.937481 L89.8015074,134.041205 Z M85.7574287,132.174469 L85.7574287,145.882877 L75.6596108,151.664498 L75.6596108,137.938202 L85.7574287,132.174469 Z M116.4839,126.426354 L116.291989,129.406521 L89.8015074,144.544974 L89.9024917,141.616768 L116.4839,126.426354 Z" id="Path-152-Copy-5" fill="#FFFFFF" fill-rule="nonzero" transform="translate(97.734048, 132.788444) scale(-1, 1) translate(-97.734048, -132.788444) "></path>
                                                        <g id="Group-42" stroke-width="1" fill="none" fill-rule="evenodd" transform="translate(41.522809, 71.311671) rotate(6.000000) translate(-41.522809, -71.311671) translate(4.522809, 30.311671)">
                                                            <path d="M41.7521798,74.1590958 C52.9896861,74.1665006 62.0895073,59.0583738 62.0772118,40.4141473 C62.0648915,21.7699209 52.9451152,6.64978412 41.707609,6.64237659 C39.8615621,6.64115971 36.6397468,6.29703528 32.0421633,5.61000328 C24.9295974,19.4281879 21.3764034,31.0206276 21.3825814,40.3873223 C21.3881463,48.8089326 23.7837707,59.5464144 28.5694547,72.5997678 C34.9422568,73.6377256 39.3364985,74.1575016 41.7521798,74.1590958 Z" id="Oval-Copy-17" fill="url(#linearGradient-24)" transform="translate(41.729897, 39.884550) rotate(-21.000000) translate(-41.729897, -39.884550) "></path>
                                                            <g id="Path-160" transform="translate(0.495129, 3.801740)">
                                                                <mask id="mask-26" fill="white">
                                                                    <use xlink:href="#path-25"></use>
                                                                </mask>
                                                                <use id="Mask" fill="#ADCCFF" transform="translate(32.026306, 39.064697) rotate(-21.000000) translate(-32.026306, -39.064697) " xlink:href="#path-25"></use>
                                                                <path d="M52.2155435,24.0332244 L29.6388534,38.7914634 L44.578761,74.2914223 C52.2992421,69.2288223 56.1547912,60.8545166 56.1454083,49.1685054 C56.1360025,37.4824942 54.8260476,29.1040672 52.2155435,24.0332244 Z" fill="#FFFFFF" mask="url(#mask-26)" transform="translate(42.892131, 49.162323) rotate(-6.000000) translate(-42.892131, -49.162323) "></path>
                                                            </g>
                                                        </g>
                                                    </g>
                                                </g>
                                                <rect id="Rectangle" stroke="none" fill="#80B1FF" fill-rule="evenodd" opacity="0.466680618" mask="url(#mask-22)" x="140.057971" y="-127.829268" width="120.193147" height="339.419623"></rect>
                                            </g>
                                        </g>
                                        <path d="M-191.961064,124.285695 L-191.616934,166.043808 C-191.595728,168.61705 -190.202792,170.983344 -187.963195,172.250715 L60.6304265,312.927898 C61.9282074,313.662302 63.5756187,313.205595 64.3100227,311.907814 C64.5395504,311.502211 64.6601826,311.044102 64.6601826,310.578058 L64.6601826,272.117631 C64.6601826,269.546972 63.2896186,267.171323 61.0641889,265.884563 L-187.909653,121.926045 C-189.200564,121.17963 -190.852142,121.621032 -191.598556,122.911943 C-191.839867,123.329286 -191.965036,123.803626 -191.961064,124.285695 Z" id="Path-217" stroke="#DDE7F9" stroke-width="1.79999995" mask="url(#mask-19)" transform="translate(-63.669909, 217.384641) scale(-1, 1) translate(63.669909, -217.384641) "></path>
                                    </g>
                                </g>
                                <g id="man-1-copy-2" transform="translate(23.845337, 268.712129)">
                                    <path d="M0.434939618,292.980428 C0.144979873,294.924144 0,296.391903 0,297.383707 C0,298.871412 2.61192086,301.273556 7.79352434,300.873817 C12.9751278,300.474079 17.4192746,295.664918 17.8676848,295.150803 C18.316095,294.636687 17.4035209,290.614476 20.492163,289.563741 C23.5808051,288.513006 24.163565,290.667604 29.2059603,287.434894 C34.2483556,284.202185 34.0246072,275.716727 31.1412201,273.718498 C29.218962,272.386345 18.9835352,278.806988 0.434939618,292.980428 Z" id="Path-11" fill="#30334F"></path>
                                    <path d="M37.1762641,316.200769 C36.6183389,317.683259 36.3393764,319.272701 36.3393764,320.969097 C36.3393764,323.51369 41.3014552,324.878286 47.2764525,324.878286 C53.2514498,324.878286 50.9283471,322.396178 54.9567327,321.682637 C58.9851183,320.969097 58.4688987,323.460098 64.3491453,323.460098 C70.229392,323.460098 78.2981966,322.288026 79.4558198,316.200769 C80.2275685,312.142597 66.1343833,312.142597 37.1762641,316.200769 Z" id="Path-12" fill="#30334F"></path>
                                    <path d="M2.07629443,276.476764 C1.04766033,278.782241 0.355562187,284.254694 0,292.894123 C0.774139247,296.477855 3.5298223,297.974383 8.26704916,297.383707 C15.3728894,296.497693 13.9730916,293.163013 24.5648417,287.806561 C35.1565917,282.450109 34.48895,275.276857 31.7087612,273.546821 C28.9285724,271.816786 25.4449951,270.77347 16.5475689,273.209718 C10.6159514,274.833884 5.79219326,275.922899 2.07629443,276.476764 Z" id="Path-10" fill="#181E36"></path>
                                    <path d="M57.6515318,298.900876 C59.082761,302.514687 62.6540604,304.766108 68.3654303,305.655138 C76.932485,306.988683 81.3040277,310.660339 80.5245611,314.217387 C79.7450946,317.774435 75.4646494,321.983408 65.9662988,321.05053 C56.4679481,320.117651 54.5015454,321.014801 49.6646249,321.475092 C44.8277044,321.935383 39.1377162,321.94536 36.7668957,318.081373 C36.1968699,315.035502 36.1968699,311.229903 36.7668957,306.664576 C37.6219345,299.816586 39.0842906,299.325439 39.0842906,296.980831 C39.0842906,295.417759 45.273371,296.057774 57.6515318,298.900876 Z" id="Path-9" fill="#181E36"></path>
                                    <path d="M57.9013837,25.495401 C58.8317356,27.4835666 59.6657116,28.8271207 60.4033117,29.5260632 C61.5097119,30.574477 60.2347912,31.9894386 59.0680874,31.9894386 C58.2902849,31.9894386 57.9013837,29.8247594 57.9013837,25.495401 Z" id="Path-15" fill="#C47770"></path>
                                    <path d="M64.1643193,124.817373 C66.7798943,129.00276 66.0417075,139.472323 66.294274,148.732688 C66.8696375,169.828423 64.9249287,195.108317 64.9249287,200.005903 C64.9249287,207.053376 61.7088029,258.107371 61.7088029,269.889128 C61.7088029,277.743632 61.2890181,287.210691 60.4494485,298.290306 C51.0523904,302.865065 43.183425,302.724847 36.8425523,297.869653 C38.1714126,233.606242 38.8358428,199.538169 38.8358428,195.665433 C38.8358428,191.792697 38.6018691,188.746196 38.1339216,186.52593 C32.7836605,210.515288 30.10853,224.103653 30.10853,227.291026 C30.10853,230.4784 27.2534055,247.180286 21.5431565,277.396685 C18.0926886,280.495322 14.2522951,281.631852 10.0219761,280.806272 C5.79165709,279.980692 2.70265096,278.375399 0.754957706,275.990391 C2.05894681,246.152849 4.39398637,227.68129 7.76007637,220.575714 C8.4713934,206.742801 12.1575632,169.125283 12.1575632,159.910811 C12.1575632,150.69634 7.79240896,133.063758 13.2654602,117.341522 C18.7385114,101.619286 55.5902888,111.097392 64.1643193,124.817373 Z" id="Path-8" fill="url(#linearGradient-27)"></path>
                                    <path d="M59.3362776,123.06358 C62.1161013,125.453539 60.4494485,204.076512 60.4494485,219.795808 C60.4494485,230.275339 58.7670804,256.246235 55.4023442,297.708495" id="Path-17" stroke="#1C478A" stroke-width="1.12907518"></path>
                                    <ellipse id="Oval" stroke="#30334F" stroke-width="1.12907518" transform="translate(58.881531, 23.779346) rotate(-18.000000) translate(-58.881531, -23.779346) " cx="58.8815306" cy="23.7793462" rx="3.15437278" ry="4.56488937"></ellipse>
                                    <path d="M14.8233691,108.815875 C13.9008388,108.851657 13.4395736,110.01913 13.4395736,112.318296 C13.4395736,115.767045 17.224654,120.068107 20.990809,122.597406 C24.756964,125.126705 35.9041972,127.971435 53.3770746,126.27313 C59.2305023,125.127259 62.5321808,121.955527 63.2821101,116.757934 L14.8233691,108.815875 Z" id="Path-7" fill="#092965"></path>
                                    <rect id="Rectangle" fill="#30334F" x="52.1327251" y="18.2931185" width="5.3990444" height="1.82874256" rx="0.914371282"></rect>
                                    <path d="M52.9396664,10.8254905 C55.8075436,16.3199571 57.2414822,20.1907657 57.2414822,22.4379162 C57.2414822,25.808642 59.3295955,25.6715383 59.3295955,30.0999648 C59.3295955,34.5283913 59.5649917,43.6174396 57.2414822,45.799805 C55.6924758,47.2547153 52.7662127,47.6398253 48.4626927,46.9551351 C47.7828074,51.5869798 47.7828074,54.4713482 48.4626927,55.6082402 C49.142578,56.7451323 50.0294816,57.642597 51.1234035,58.3006345 C42.6097219,57.7418135 37.1515972,56.8443487 34.7490295,55.6082402 C32.3464618,54.3721317 31.4407384,52.1860811 32.0318593,49.0500884 C32.9123908,49.1664873 33.3526565,48.8464281 33.3526565,48.0899109 C33.3526565,47.3333937 33.3526565,44.4244766 33.3526565,39.3631596 C32.465012,26.5136607 33.5398917,18.339164 36.5772957,14.8396695 C39.6146996,11.3401751 45.0688232,10.0021154 52.9396664,10.8254905 Z" id="Path-3" fill="#AC6A5A"></path>
                                    <path d="M75.5488463,44.8157324 C75.5488463,42.3271765 80.9742171,31.4561088 91.8249585,12.2025294 C92.4955013,33.5385261 90.5815172,47.302383 86.0830061,53.4941 C79.0602329,50.1970776 75.5488463,47.3042884 75.5488463,44.8157324 Z" id="Path" fill="#AC6A5A"></path>
                                    <path d="M16.0551658,85.3547825 C17.2106236,96.7333749 14.7491562,104.553739 8.67076371,108.815875 L5.08456545,84.2853846 L16.0551658,85.3547825 Z" id="Path-231" fill="#AC6A5A" transform="translate(10.708286, 96.550630) scale(-1, 1) translate(-10.708286, -96.550630) "></path>
                                    <path d="M4.07708234,53.4941 C8.93476962,59.676101 13.153076,69.8818385 16.7320015,84.1113126 C15.6709228,87.8392193 12.5393227,89.7031727 7.33720107,89.7031727 L4.07708234,53.4941 Z" id="Path-230" fill="#586DFF" transform="translate(10.404542, 71.598636) scale(-1, 1) translate(-10.404542, -71.598636) "></path>
                                    <g id="Path-40" transform="translate(11.435752, 40.409249)">
                                        <mask id="mask-29" fill="white">
                                            <use xlink:href="#path-28"></use>
                                        </mask>
                                        <use id="Mask" fill="#586DFF" xlink:href="#path-28"></use>
                                        <path d="M-1.01927058,20.874736 C8.49134727,34.639413 26.4072931,42.6630121 52.7285668,44.9455333" id="Path-20" stroke="#D8D8D8" stroke-width="1.12907518" style="mix-blend-mode: multiply;" mask="url(#mask-29)"></path>
                                    </g>
                                    <g id="Path-19" transform="translate(19.329349, 0.445620)">
                                        <mask id="mask-31" fill="white">
                                            <use xlink:href="#path-30"></use>
                                        </mask>
                                        <use id="Mask" fill="#30334F" xlink:href="#path-30"></use>
                                        <path d="M26.267179,17.3068821 C15.2114745,18.7860402 13.2251959,25.4651195 20.308343,37.3441199 C30.9330637,55.1626206 24.2745605,33.7313034 29.7205568,31.5438189 C33.3512209,30.0854959 33.3512209,24.95427 29.7205568,16.1501411 L26.267179,17.3068821 Z" fill="url(#linearGradient-32)" mask="url(#mask-31)"></path>
                                    </g>
                                    <path d="M33.0863632,46.6468212 C32.827331,47.8069503 34.6797518,48.902175 38.6436254,49.9324953 C44.5894359,51.4779756 49.4429546,53.3761953 52.0071951,57.0999043 L54.45496,60.3413788 C41.5799206,57.0776937 34.0471936,54.5798618 31.856779,52.8478831 C28.5711571,50.2499151 31.0178106,48.6053485 31.0178106,48.6053485 C31.0178106,48.6053485 31.7073281,47.952506 33.0863632,46.6468212 Z" id="Path-5" fill="#4A5CD8"></path>
                                    <path d="M35.5709776,138.978053 L35.5709776,143.574593 C41.5958228,145.518078 47.8675911,145.807049 54.3862824,144.441506 L54.3862824,140.49622 C49.8973188,140.674089 46.5506305,140.674089 44.3462175,140.49622 C42.1418046,140.318351 39.2167246,139.812295 35.5709776,138.978053 Z" id="Path-13" fill="#828EB7" style="mix-blend-mode: multiply;"></path>
                                    <path d="M38.1339216,186.52593 L36.6745879,161.890959 C34.3326257,161.488633 32.4008043,160.828584 30.8791235,159.910811 C29.3574427,158.993039 27.5411849,157.392508 25.4303499,155.109217 C24.9673089,164.03707 25.6000517,171.975979 27.3285782,178.925943 C29.921368,189.350889 34.3747297,200.15441 33.855371,205.77857 L38.1339216,186.52593 Z" id="Path-14" fill="#828EB7" style="mix-blend-mode: multiply;"></path>
                                    <line x1="61.3960626" y1="21.426572" x2="43.1007393" y2="29.8019541" id="Path-16" stroke="#30334F" stroke-width="1.12907518"></line>
                                    <line x1="33.5778362" y1="183.453313" x2="19.09599" y2="279.068646" id="Path-18" stroke="#1C478A" stroke-width="1.12907518"></line>
                                    <path d="M24.6108322,131.35354 C21.1848095,147.378754 23.7229368,157.333214 32.2252141,161.216921" id="Path-4" stroke="#1C478A" stroke-width="1.12907518"></path>
                                    <path d="M44.8805423,31.9894386 C43.0087823,29.8019541 41.3904969,29.0727926 40.0256862,29.8019541 C37.9784701,30.8956963 37.2904006,33.7894062 40.0256862,37.5192291 C41.8492099,40.0057777 43.7061573,40.2693448 45.5965283,38.3099303 L44.8805423,31.9894386 Z" id="Path-42" fill="#AC6A5A"></path>
                                    <path d="M44.5844902,33.3485233 C43.6707893,32.1575583 42.8808222,31.76057 42.2145889,32.1575583 C41.215239,32.7530408 40.8793574,34.3285066 42.2145889,36.35919 C43.1047432,37.712979 44.0112134,37.8564767 44.9339993,36.7896833 L44.5844902,33.3485233 Z" id="Path-42-Copy" fill="url(#linearGradient-33)" style="mix-blend-mode: multiply;"></path>
                                </g>
                            </g>
                        </g>
                        <g id="graphic-2" transform="translate(693.897521, 604.515892) rotate(60.000000) translate(-693.897521, -604.515892) translate(623.397521, 534.015892)">
                            <g id="Group-72" transform="translate(0.510295, -0.000000)">
                                <path d="M95.7835801,21.0231827 L88.0957895,8.31626541 L125.389934,30.0251684 C132.388942,33.3898259 137.260485,40.565405 138.848924,50.9061372 L82.7124959,76.8683904 L89.9936521,22.7734932 C91.9721417,22.014627 93.9052585,21.4329452 95.7835801,21.0231827 Z" id="Combined-Shape" fill="url(#linearGradient-34)"></path>
                                <path d="M82.7124959,76.8683904 L48.5209891,128.496401 C42.1823518,123.485468 38.3705996,114.520702 38.3705996,102.320083 C38.3705996,74.5788982 58.0771682,40.6135429 82.3864525,26.4563389 C84.9807255,24.9454902 87.5225779,23.7212944 89.9936521,22.7734932 L82.7124959,76.8683904 Z" id="Combined-Shape" fill="url(#linearGradient-35)"></path>
                                <polygon id="Combined-Shape-Copy-14" fill="url(#linearGradient-36)" points="82.7124959 76.8683904 48.5209891 128.496401 10.1787807 106.172019 51.6514437 0.449111396 89.9936521 22.7734932"></polygon>
                                <path d="M44.3702874,54.5440086 L10.1787807,106.172019 C3.84014336,101.161086 0.0283911245,92.1963198 0.0283911245,79.9957015 C0.0283911245,52.2545164 19.7349597,18.289161 44.0442441,4.1319571 C46.638517,2.62110838 49.1803694,1.39691257 51.6514437,0.449111396 L44.3702874,54.5440086 Z" id="Combined-Shape-Copy-8" fill="url(#linearGradient-37)"></path>
                                <polygon id="Combined-Shape-Copy-9" fill="url(#linearGradient-38)" points="100.279838 28.4549123 125.841311 43.3378335 82.7124959 76.8683904 57.1510236 61.9854692"></polygon>
                                <path d="M64.4321798,7.890572 C82.8314303,0.833385768 97.3066884,9.09971136 100.279838,28.4549123 L57.1510236,61.9854692 L64.4321798,7.890572 Z" id="Combined-Shape-Copy-7" fill="url(#linearGradient-39)"></path>
                                <path d="M50.4139669,125.638069 L82.7124959,76.8683904 L112.856,53.4332811 C113.35862,50.1028368 113.621569,46.8153191 113.621569,43.6108521 C113.621569,40.8738065 113.429736,38.2996114 113.060574,35.8963729 L138.848924,50.9061372 C139.218085,53.3093757 139.409919,55.8835708 139.409919,58.6206164 C139.409919,86.3618015 119.70335,120.327157 95.3940656,134.484361 C81.776044,142.415203 69.6024568,142.447393 61.5286023,136.064705 L35.740253,121.05494 C39.735049,124.212978 44.7334964,125.800596 50.4139669,125.638069 Z" id="Combined-Shape" fill="url(#linearGradient-40)"></path>
                                <path d="M35.740253,121.05494 L69.9317597,69.4269298 L113.060574,35.8963729 C113.429736,38.2996114 113.621569,40.8738065 113.621569,43.6108521 C113.621569,71.3520372 93.9150007,105.317393 69.6057164,119.474597 C55.9876947,127.405439 43.8141076,127.437629 35.740253,121.05494 Z" id="Combined-Shape-Copy-6" fill="url(#linearGradient-41)"></path>
                            </g>
                        </g>
                    </g>
                    <path d="M123.519151,388.816945 C198.30208,338.709003 274.903372,316.553668 353.323026,322.35094 C431.742679,328.148212 499.563137,298.664899 556.7844,233.901002 C634.597988,149.584974 708.065975,107.42696 777.188361,107.42696 C846.310748,107.42696 803.883379,71.6179732 649.906255,0 L399.055029,14.1004552 L123.519151,57.8887102 L0,233.901002 L123.519151,388.816945 Z" id="路径-6" fill="#E7EFFC"></path>
                    <path d="M164.698813,348.769395 C216.968866,300.362668 278.139459,276.159305 348.210591,276.159305 C453.317291,276.159305 515.540123,231.651039 529.300917,170.286314 C543.061711,108.921589 787.705383,96.6630355 829.50537,78.0802477 C857.372027,65.6917225 796.568743,53.3316399 647.095518,41 L381.778859,41 L136,78.0802477 L164.698813,348.769395 Z" id="路径-5" fill="#D0DEF8"></path>
                </g>
            </g>
        </g>
    </g>
</svg>